<svg xmlns="http://www.w3.org/2000/svg" viewBox="0 0 112.0 63.7"><path d="M69.4 12.0 L67.7 12.0 L56.6 9.6 L52.7 9.2 L50.4 9.2 L38.8 10.2 L33.1 11.6 L32.4 12.0 L32.1 12.5 L32.0 12.8 L31.6 14.6 L31.3 15.2 L30.6 15.7 L25.4 18.4 L24.6 19.2 L16.2 40.1 L16.1 40.7 L16.1 41.3 L17.0 44.6 L17.0 45.1 L16.7 45.7 L16.4 46.1 L6.4 54.7 L6.1 55.2 L6.0 55.7 L6.1 56.4 L6.5 57.1 L7.0 57.5 L7.5 57.7 L8.3 57.7 L24.4 55.6 L26.2 55.5 L28.9 55.6 L30.9 55.9 L33.6 56.4 L36.3 56.9 L37.7 57.2 L38.6 57.0 L39.3 56.7 L40.2 55.8 L41.1 54.2 L42.4 50.8 L42.7 49.3 L42.8 47.7 L42.6 46.0 L40.6 36.7 L40.6 36.1 L40.9 35.4 L42.0 33.6 L43.5 31.3 L44.0 31.1 L44.6 31.0 L45.0 31.2 L47.2 32.1 L47.8 32.2 L71.0 32.0 L71.3 32.2 L71.6 32.8 L71.8 33.5 L72.1 33.6 L72.6 33.6 L81.8 29.8 L83.0 29.2 L86.8 26.5 L89.0 24.5 L91.2 22.3 L96.4 17.2 L97.4 16.5 L98.6 15.9 L105.4 12.9 L105.9 12.4 L106.0 11.6 L105.9 11.0 L103.8 6.6 L103.3 6.2 L102.8 6.0 L102.1 6.0 L101.5 6.2 L92.3 9.6 L89.0 10.9 L87.3 11.5 L85.7 11.9 L84.7 12.1 L69.4 12.0" fill="none" stroke="#EDE6E4" stroke-width="2.4" vector-effect="non-scaling-stroke" stroke-linejoin="round" stroke-linecap="round"/></svg>
